<?xml version="1.0" encoding="utf-8" ?><!-- created by svgstack.com | Attribution is required. --><svg xmlns="http://www.w3.org/2000/svg" xmlns:xlink="http://www.w3.org/1999/xlink" width="1024" height="1024"><path fill="#31BC70" transform="scale(2 2)" d="M340.719 196.156C356.816 195.92 372.952 196.165 389.054 196.161L403.485 196.125C411.843 196.089 419.905 195.895 426.838 201.405C441.588 212.255 438.75 227.296 438.746 243.372L438.756 397.678C438.769 405.246 439.374 412.637 437.474 420.025C436.503 419.679 332.283 298.689 313.15 277.47C309.726 273.819 306.472 270.075 303.305 266.199C306.765 259.915 311.101 254.068 314.762 247.887C324.153 232.029 334.033 213.318 340.719 196.156Z"/><path fill="#58B2F2" transform="scale(2 2)" d="M340.719 196.156C356.816 195.92 372.952 196.165 389.054 196.161L403.485 196.125C411.843 196.089 419.905 195.895 426.838 201.405C419.64 206.48 412.223 211.24 404.927 216.172L323.629 270.068C320.183 272.335 316.113 274.587 313.15 277.47C309.726 273.819 306.472 270.075 303.305 266.199C306.765 259.915 311.101 254.068 314.762 247.887C324.153 232.029 334.033 213.318 340.719 196.156Z"/><path fill="#58B2F2" transform="scale(2 2)" d="M73.1308 410.2C72.9283 407.797 73.1035 405.248 73.1076 402.828L73.1363 264.184C73.1335 240.03 65.9593 201.013 99.414 197.108C108.973 195.992 165.147 195.001 171.73 197.224C174.3 202.232 176.372 207.481 178.761 212.576C190.066 236.687 203.691 259.246 218.957 281.06C224.245 288.618 230.014 295.968 235.089 303.653C229.427 308.055 222.792 311.547 216.777 315.473L86.7486 401.26C82.2315 404.272 77.6119 407.135 73.1308 410.2Z"/><path fill="#F45F5C" transform="scale(2 2)" d="M171.73 197.224C162.136 170.983 158.2 160.267 167.637 130.715C182.839 83.1082 235.737 54.704 283.785 70.4144C323.606 83.435 348.468 119.636 349.457 160.769C349.78 174.202 344.776 183.888 340.719 196.156C334.033 213.318 324.153 232.029 314.762 247.887C311.101 254.068 306.765 259.915 303.305 266.199C288.112 288.703 272.714 308.848 256.23 330.256C249.345 321.81 242.202 311.592 235.089 303.653C230.014 295.968 224.245 288.618 218.957 281.06C203.691 259.246 190.066 236.687 178.761 212.576C176.372 207.481 174.3 202.232 171.73 197.224ZM253.419 120.348C242.67 121.49 233.011 126.044 226.116 134.521C204.294 161.349 224.805 199.418 259.562 197.224C294.674 193.133 307.06 149.977 279.885 128.608C272.726 122.979 262.627 119.087 253.419 120.348Z"/><path fill="#E3E2E2" transform="scale(2 2)" d="M303.305 266.199C306.472 270.075 309.726 273.819 313.15 277.47C332.283 298.689 436.503 419.679 437.474 420.025C435.682 421.146 434.247 426.047 432.981 428.05C427.636 436.51 415.433 443.68 405.15 442.735C402.81 442.47 400.221 442.706 397.849 442.712L128.463 442.745C118.219 442.745 105.282 443.581 95.4944 440.978C86.1923 440.014 76.1678 426.519 74.2652 418.175C73.667 415.551 74.232 412.711 73.1308 410.2C77.6119 407.135 82.2315 404.272 86.7486 401.26L216.777 315.473C222.792 311.547 229.427 308.055 235.089 303.653C242.202 311.592 249.345 321.81 256.23 330.256C272.714 308.848 288.112 288.703 303.305 266.199Z"/><path fill="#FDFDFD" transform="scale(2 2)" d="M303.305 266.199C306.472 270.075 309.726 273.819 313.15 277.47C332.283 298.689 436.503 419.679 437.474 420.025C435.682 421.146 434.247 426.047 432.981 428.05C427.636 436.51 415.433 443.68 405.15 442.735L406.932 442.36L406.939 442.167C402.576 438.724 399.35 433.963 395.656 429.866L326.438 352.155C314.965 339.041 303.721 325.624 291.924 312.808C286.517 317.015 280.614 320.526 274.891 324.281L105.077 434.584C101.881 436.715 98.5928 438.704 95.4944 440.978C86.1923 440.014 76.1678 426.519 74.2652 418.175C73.667 415.551 74.232 412.711 73.1308 410.2C77.6119 407.135 82.2315 404.272 86.7486 401.26L216.777 315.473C222.792 311.547 229.427 308.055 235.089 303.653C242.202 311.592 249.345 321.81 256.23 330.256C272.714 308.848 288.112 288.703 303.305 266.199Z"/></svg> 