<svg xmlns="http://www.w3.org/2000/svg" xmlns:xlink="http://www.w3.org/1999/xlink" width="35" height="84.499" viewBox="0 0 35 84.499"><defs><clipPath id="clip"><use xlink:href="#fill"></use></clipPath></defs><g id="scroll-icon" transform="translate(-1717.506 -854)"><g id="Button" transform="translate(1718 854)"><g id="Grupo_191" data-name="Grupo 191" transform="translate(0)"><g id="Base" transform="translate(-0.494)" fill="none" stroke="#070707" stroke-linejoin="round" stroke-width="2"><rect width="35" height="67" rx="17.5" stroke="none"></rect><rect x="1" y="1" width="33" height="65" rx="16.5" fill="none"></rect></g><circle id="Circle" cx="3" cy="3" r="3" transform="translate(14.506 13)" fill="#070707"></circle><g id="icon" transform="translate(488.399 -760.091) rotate(90)"><path id="Vector_125" data-name="Vector 125" d="M14.2,7.85C6.015,6.509,1.323,2.058,0,0" transform="translate(830.31 463)" fill="#fff" stroke="#070707" stroke-width="1"></path><path id="Vector_126" data-name="Vector 126" d="M14.2-44.5C6.015-43.159,1.323-38.708,0-36.65" transform="translate(830.31 515.438)" fill="#fff" stroke="#070707" stroke-width="1"></path><g id="Rectangle_10" data-name="Rectangle 10" transform="translate(799 470.505)" fill="#191919" stroke="#070707" stroke-width="3"><rect id="fill" width="45.51" height="0.715" stroke="none"></rect><path d="M0,-0.7851907014846802h45.509525299072266M44.009525299072266,0v0.7148092985153198M45.509525299072266,1.5h-45.509525299072266M1.5,0.7148092985153198v-0.7148092985153198" fill="none" clip-path="url(#clip)"></path></g></g></g></g></g></svg>